<?xml version="1.0" encoding="UTF-8" standalone="no"?>
<!-- Created with Inkscape (http://www.inkscape.org/) -->

<svg
   xmlns:dc="http://purl.org/dc/elements/1.1/"
   xmlns:cc="http://creativecommons.org/ns#"
   xmlns:rdf="http://www.w3.org/1999/02/22-rdf-syntax-ns#"
   xmlns:svg="http://www.w3.org/2000/svg"
   xmlns="http://www.w3.org/2000/svg"
   xmlns:inkscape="http://www.inkscape.org/namespaces/inkscape"
   version="1.1"
   width="316.9375"
   height="166.425"
   id="svg2"
   xml:space="preserve"><metadata
     id="metadata8"><rdf:RDF><cc:Work
         rdf:about=""><dc:format>image/svg+xml</dc:format><dc:type
           rdf:resource="http://purl.org/dc/dcmitype/StillImage" /></cc:Work></rdf:RDF></metadata><defs
     id="defs6" /><g
     transform="matrix(1.25,0,0,-1.25,0,166.425)"
     id="g10"><g
       transform="scale(0.1,0.1)"
       id="g12"><path
         d="m 1261.95,1092.36 -218.63,-446.255 432.74,0 -214.11,446.255 z m -499.294,-730.891 435.654,843.851 63.79,126.1 67.64,-126.1 427.78,-835.457 2.24,-4.449 -146.72,8.75 -2.3,5.652 -81.37,164.622 -538.124,0 -84.805,-171.575 -3.086,-6.355 -143.281,-9.844 2.582,4.805"
         inkscape:connector-curvature="0"
         id="path14"
         style="fill:#3871c1;fill-opacity:1;fill-rule:nonzero;stroke:none" /><path
         d="m 1506.15,857.531 90.69,175.659 37.32,73.77 39.57,-73.77 355.53,-702.799 3.16,-6.231 -86.88,10.004 -5.24,8.582 -306.63,624.301 -157.97,-320.473 30.45,210.957"
         inkscape:connector-curvature="0"
         id="path16"
         style="fill:#3871c1;fill-opacity:1;fill-rule:nonzero;stroke:none" /><path
         d="m 487.309,325.16 362.382,707.72 37.317,73.76 39.57,-73.76 92.032,-179.763 -4.47,-119.668 -35.222,45.199 -91.711,188.399 -311.84,-627.641 -2.637,-4.929 -87.031,-13.278 1.61,3.961"
         inkscape:connector-curvature="0"
         id="path18"
         style="fill:#3871c1;fill-opacity:1;fill-rule:nonzero;stroke:none" /><path
         d="M 5.55078,227.07 C -3.28125,223.91 11.2383,225.398 0,224.199 c 0.839844,1.692 2.32031,3.18 5.55078,2.871"
         inkscape:connector-curvature="0"
         id="path20"
         style="fill:#a47343;fill-opacity:1;fill-rule:nonzero;stroke:none" /><path
         d="m 2493.28,230 c -31.31,-0.789 -67.59,17.328 -100.99,19.469 -3.85,0.519 2.12,4.703 -6.66,5.422 -32.75,0.16 -80.87,15.039 -118.09,27.808 l 2.59,0.922 c -7.09,2.43 -16.84,-0.242 -24.45,1.77 0.12,0.937 2.72,0.859 1.18,2.461 -2.48,-2.43 -14.23,1.269 -17.9,-0.211 -2.84,1.648 -2.14,3.8 -5.86,5.75 l -5.02,-2.371 c -13.67,-5.34 -29.75,6.089 -47.27,5.058 0.94,0.602 2.71,0.91 1.5,1.844 -27.83,-0.301 -61.38,6.617 -91.93,9.199 1.37,0.949 2.8,2.84 1.22,4.367 -2.02,-3.136 -11.48,-2.609 -19.69,-2.078 -3.15,3.988 -14.36,-1.109 -23.59,2.192 l 0.92,0.648 c -7.54,-2.59 -10.13,3.629 -16.43,0.109 l -4.11,3.301 c -3.75,-4.469 -9.85,3.86 -16.01,2.141 l 0.05,-1.031 c -5.64,-0.469 -8.17,2.359 -13.38,2.191 l -0.41,0.617 c -12.09,0.281 -18.67,3.902 -18.87,0.051 -3.79,3.601 11.74,-0.109 5.75,5.191 -39.72,1.442 -80.2,6.352 -119.79,10.735 -4.34,1.976 -7.16,2.726 -8.02,4.273 -4.04,-0.387 -15,0.762 -18.79,-0.848 1.34,-0.05 -2.36,2.211 -4.45,2.602 -7.06,2.152 -8.28,-3.43 -16.03,-0.937 3.24,0.707 4.44,1.839 3.51,3.363 -7.03,-2.324 -16.02,-0.961 -24.1,-1.149 1.3,0.52 3.26,0.719 3.08,1.95 -9.05,-2.481 -15.89,2.168 -23.74,0.664 l 3.05,1.972 c -12.11,3.703 -4.04,-4.328 -14.57,-1.859 2.62,0.492 1.79,1.43 2.33,2.289 -10.3,-3.199 -26.28,-0.543 -36.32,-1.094 0.62,0.258 0.51,0.879 0.51,0.879 -10.86,0.332 -22.07,2.695 -34.11,1.652 -4.25,1.274 1.81,5.305 -9.71,5.254 0.1,-4.468 -19.58,-0.519 -13.19,-6 -9.72,1.379 -25.1,4.09 -31.73,3.02 4.52,1.387 -4.42,5.742 3.75,5.57 l -5.99,3.117 c 1.03,1.75 6.3,-1.046 4.48,1.379 -4.09,0.086 -16.09,-0.871 -19.7,0.094 -7.73,-2.226 -14.98,-7.031 -27.24,-6.934 5.86,1.43 -3,5.075 0.95,5.629 l -17.53,-7.629 c -4.08,0 -0.7,3.555 -6.65,2.7 0.24,-1.196 -2.37,-1.785 -4.19,-2.657 -1.52,0.594 -16.99,-0.222 -18.55,4.25 -1.73,1.801 6.68,0.567 2.25,2.372 -7.52,0.339 -7.93,-1.145 -15.46,-0.821 l -0.12,0.59 c -4.93,0.961 -14.72,-1.281 -9.43,-3.883 3.45,-0.265 -1.19,2.684 3.86,1.219 -3.6,-2.414 -12.37,-2.805 -19.9,-2.574 2.6,0.609 2.34,1.793 3.42,3 -10.25,-3.074 -21,-3.766 -32.33,-4.793 -0.26,-2.074 4.34,3.64 5.96,2.476 -14.36,3.426 -30,-2.992 -41.89,1.68 1.98,0.289 0.96,-3.004 0.84,-2.414 -6.96,0.488 -6.54,3.449 -11.12,2.453 -0.41,1.778 -5.73,-0.449 -10.42,-0.883 -2.45,-1.222 -1.2,0.895 2.88,0.993 -6.56,-1.356 -32.68,-3.497 -47.67,-0.586 0.27,-1.18 -9.32,-4.098 -12.76,-3.895 l 1.39,2.711 c -3.13,1.715 -11.59,0.023 -12.14,2.383 -7.44,-3.164 28.52,2.203 18.48,-0.141 -2.56,2.344 -14,-4.062 -11.8,-0.371 -6.94,0.086 -13.72,-2.961 -20.32,-0.351 1.92,-0.461 5.69,3.769 0.07,3.609 -9.89,-0.418 -2.82,-1.289 -10.86,-2.145 l -5.04,-1.089 c -0.35,-2.672 -8.83,0.429 -5.18,-2.586 -1.21,2.211 -14.37,-1.258 -13.32,3.168 l 1.4,3.48 c -4.28,-0.227 -7.03,-3.629 -10.39,-5.137 -0.57,0.317 -1.68,1.032 -1.46,1.59 -0.72,-5.336 -10.2,0.524 -15.29,-3.566 -8.95,1.945 -22.75,0.328 -26.98,3.558 -6.89,-1.672 -13.16,-3.636 -21.01,-2.543 1.56,0.512 3.69,0.684 4.14,1.836 -4.95,1.532 -6.16,0.117 -10.66,-0.781 1.01,0.801 -9.88,3.055 -15.39,4.902 -6.83,-1.644 -4.44,-4.511 -5.12,-6.277 -6.31,5.231 -19.28,-3.531 -27.17,1.188 2.36,0.742 9.96,2.664 4.24,3.945 -6.33,5.25 -12.57,-3.996 -22.68,-1.723 l 2.54,-4.312 c -4.54,2.609 -14.79,-2.871 -13.85,1.605 -3.34,-1.644 -11.92,1.188 -10.71,-3.051 -16.64,3.25 -40.21,-3.058 -50.59,4.364 -2.36,-0.735 -8.31,-0.27 -7.03,-2.407 4.01,-2.218 5.46,1.903 6.98,0.309 -2.13,-0.176 -2.56,-1.355 -2.77,-1.957 -5.17,0.785 -9.23,0.941 -4.47,4.668 -11.54,2.219 -11.59,-7.688 -26.21,-6.559 0.6,1.793 -0.54,2.422 -4.79,1.985 l -7.97,-3.317 c -9.45,0.356 -5.52,3.821 -5.85,6.797 -5.02,-0.703 -11.19,-0.785 -13.4,-3.094 l -6.27,3.52 c 4.59,-2.539 -4.07,-1.953 -6.4,-2.77 l 2.33,0.817 c -0.97,1.238 -6.77,0.242 -9.716,-0.238 0.8,-1.829 6.776,-2.356 10.036,-2.778 -2.51,-1.402 -6.53,-1.25 -9.88,-2.918 1.008,2.996 -8.301,1.758 -12.305,1.821 -4.613,0.394 -5.058,-2.891 -6.394,-2.868 -0.192,1.52 -7.496,-0.125 -4.024,2.192 1.543,0.57 3.641,-1.289 6.172,0.176 -3.07,0.98 -2.848,3.64 -9.043,1.382 -4.652,-1.691 1.488,-5.714 -7.555,-4.328 2.309,0.848 2.688,2.039 4.469,3.188 l -8.48,1.09 -0.231,-2.688 c -1.168,0.621 -0.394,0.895 -0.929,1.219 -2.368,-2.942 -12.782,-1.531 -14.516,-4.785 -4.219,-0.5 -9.027,1.39 -13.09,1.48 l 0.77,0.278 c -5.039,1.312 -11.551,-0.055 -15.598,-2.075 l 0.18,0.598 c -2.707,0.055 -9.071,-0.637 -12.364,-2.461 -6.925,1.559 -2.886,9.918 -10.23,6.059 -6.914,-0.555 -10.531,-5.61 -7.652,-7.133 -12.54,0.972 -26.364,-4.317 -38.161,-0.942 -1.714,-1.199 -0.539,-1.796 -4.183,-2.675 -18.328,-0.043 -38.246,-5.969 -53.164,-1.93 5.187,1.555 0.14,2.691 -0.086,4.199 -4.176,-2.738 -5.453,2.051 -6.688,-2.168 0.625,-2.367 0.289,-3.574 5.496,-4.121 -10.765,-2.187 -27.285,-3.543 -33.507,-1.793 3.105,-0.859 0.832,-1.789 -1.473,-2.707 0.449,3.91 -7.621,3.82 -13.57,1.969 l -0.641,-2.399 -4.164,2.039 c -2.262,-0.98 -2.125,-5.16 -8.328,-3.5 -0.406,0.879 -0.84,1.77 -2.004,2.321 -6.09,-2.52 -14.609,-6.621 -21.594,-5.301 l -5.887,2.871 c -2.871,-0.66 -7.57,-3.191 -2.359,-3.672 -11.801,0.922 -19.297,0.449 -23.281,3.039 -19.281,-8.949 -48.114,-12.859 -71.367,-14.867 l 0.496,1.828 c -6.426,0.922 -2.887,-3.418 -7.371,-2.699 1.812,1.891 -5.176,3.078 -0.524,5.672 -9.133,0.828 -11.133,-4.313 -16.82,-5.781 -0.61,-2.379 4.484,2 3.711,-1.032 -0.903,-0.871 -12.528,0.243 -13.481,-3.398 -2.398,1.07 -0.976,3.848 0.055,5.41 l -5.223,-2.391 c -7.16,3.192 14.258,9.2 6.657,13.282 l -4.946,-1.203 c -5.254,3.011 12.778,5.82 0.008,5.429 -5.266,-2.418 -9.301,-8.047 -4.242,-8.949 -11.254,-2.43 -4.227,-8.937 -16.481,-10.23 -3.586,1.601 9.723,1.75 7.004,4.3 -6.113,2.039 -11.34,-3.05 -16.59,-2.738 5.86,-0.57 1.508,-4.691 -2.085,-5.801 -6.422,0.828 3.613,3.801 -5.243,3.02 -1.179,-2.192 -9.07,-4.731 -1.89,-5.219 -2.578,-4.941 -9.313,0.07 -13.625,-4.062 -3.297,2.82 8.062,8.543 -1.824,8.882 1.945,-2.871 -11.356,-5.711 -5.622,-9.601 -3.902,0.39 -4.64,2.75 -2.14,4.988 -5.668,1.172 -12.309,-7.488 -14.942,-1.648 l -1.41,-3.41 c -1.836,0.769 -4.359,1.191 -7.363,2.48 -4.762,-0.641 -14.703,-6.488 -14.965,-1.699 -1.449,-0.699 -12.344,-2.082 -7.672,-4.742 7.039,-1.008 7.418,3.519 11.817,-0.34 -5.297,2.91 -9.664,-1.899 -13.375,-3.68 l -0.907,1.742 c -2.218,-1.062 -7.625,-1.429 -8.773,-3.633 1.625,1.313 0.508,2.422 -1.402,2.59 l -2.02,-3.129 c -9.207,-2.769 -2.969,4.563 -12.019,2.411 l 6.652,3.171 c -1.469,-0.691 -4.988,1.457 -9.262,-0.05 -1.316,-2.77 -4.043,-6.313 -5.191,-8.539 -4.985,-1.954 -2.762,2.488 -7.43,-0.954 l 6.168,4.141 c 0.883,1 -5.137,3.461 -12.019,2.262 -4.27,-1.602 -10.516,-6.371 -3.356,-6.629 -3.441,-0.613 -8.535,0.148 -6.094,2.449 -7.691,-2.16 1.481,-2.562 -5.019,-5.242 -3.039,1.242 -12.047,2.242 -17.645,3.84 l 6.356,5.39 -4.696,-0.73 c 5.516,4.402 -3.519,2.09 -0.671,6.23 -3.309,0.032 -7,-1.82 -9.954,-3.269 10.356,-4.192 -9.191,-9.551 -5.57,-14.328 -12.586,-3.551 -10.238,11.468 -22.176,0.859 2.426,-0.961 -3.164,-6.082 4.629,-3.101 -8.054,-0.879 -4.488,-6.219 -14.238,-5.77 6.562,3.41 -8.41,3.93 1.078,8.871 -0.355,-1.851 5.844,-0.293 7.301,0.469 -3.633,1.41 -0.25,5.39 -8.403,3.898 -4.894,-1.398 -11.707,-2.738 -10.214,-5.277 0.734,-2.949 7.531,1.699 4.886,-1.902 -9.718,-2.84 -12.207,1.402 -15.339,-4.649 6.183,1.559 8.308,-1.23 8.554,-3.301 l -7.027,-2.57 1.043,2.242 c -11.918,-0.691 -2.789,-4.222 -14.16,-5.742 l -6.032,2.961 c 2.063,3.859 16.711,1.48 13.684,6.609 -7.391,-1.109 -9.309,-4.339 -16.496,-4.179 l 4.969,2.031 c -2.668,-0.289 -6.657,6.508 -16.34,0.34 -5.086,-2.672 -1.055,-2.223 -0.801,-4.289 -11.637,-2.973 -14.742,-5.782 -22.234,-7.614 0.765,4.313 -13.453,-2.296 -5.91,3.473 4.316,-1.57 21.253,2.07 24.687,6.731 -5.203,3.937 9.379,1.109 11,6.328 -9.484,-1.602 -9.918,3.16 -12.023,5.91 -2.672,-0.301 -4.969,-2.121 -6.442,-2.899 -0.555,-3.113 2.871,-2.382 3.637,-5.312 -10.684,-1.328 -20.527,-4.981 -25.766,-8.949 -3.804,0.718 -3.273,3.82 0.844,4.929 -12.367,-3.371 -25.836,-5.66 -37.934,-7.179 8.664,-3.059 -13.019,-3.891 -6.945,-6.711 6.563,0.39 12.75,-1.938 9.668,-4.719 -4.031,-0.5 -0.297,2.078 -2.172,2.738 -4.519,-3.609 -8.711,2.391 -12.816,-2.718 11.058,4.019 0.996,6.191 2.308,10.32 -7.793,-3.879 -0.199,2.699 -8.359,0.89 -7.758,-3.839 -17.48,-7.671 -26.41,-10.468 -12.219,0.929 -29.027,-6.25 -39.121,-8.973 -5.762,0.563 -3.125,5.563 -9.082,4.883 -6.774,-1.731 6.093,-3.242 -4.407,-3.781 l 0.778,1.05 C 106.777,240 90.4688,240.039 88.957,233.398 l 2,5.211 c -1.9765,-0.039 -3.4609,-1.48 -4.8906,-2.339 -0.4414,1.441 -2.9531,2.23 -0.1328,3.929 -6.9688,1.571 -12.9219,-3.64 -19.6289,-5.398 l 5.0039,-1.59 c -11,-4.91 -19.3125,-4.461 -30.1953,-8.27 l -0.336,2.661 -6.2109,-3.293 c 0.9648,2.929 -5.5352,2.929 -8.4726,-0.079 l 15.5429,10.848 c 5.1797,-0.258 -4.414,-4.488 -0.7461,-6.238 3.1289,-1.551 13.2188,1.871 14.2461,4.801 -4.0156,-0.762 -4.0508,-1.379 -6.8711,-3.121 -2.2265,3.242 3.793,4.691 6.1446,7.871 -2.0391,-0.7 -5.254,-0.379 -5.4063,-1.629 3.6133,2.808 7.6367,4.168 14.3789,6.047 -4.2187,-2.618 3.0586,-1.571 1.582,-3.047 -0.2578,3.289 6.004,5.84 14.6329,6.976 6.8945,-2.207 15.2031,6.172 25.2033,7.524 -3.192,-4.172 -7.6096,-7.973 -13.1994,-10.692 6.4961,-0.129 6.7656,1.731 13.2774,1.59 2.387,3.11 3.613,7.289 11.25,10.68 l 0.988,-2.27 c 6.942,2.942 6.11,6.508 15.496,7.989 16.114,2.339 32.414,5.929 44.575,8.3 l 0.96,-2.269 c 5.637,6.531 21.985,6.941 30.625,10.91 15.938,0.801 33.153,9.012 41.895,6.488 26.894,7.543 50.633,13.203 79.144,17.633 l -4.16,-4.351 c 4.629,3.48 3.664,-1.411 8.559,0.019 -6.223,1.731 6.277,4.859 9.422,7.641 13.144,-0.629 28.91,4.98 39.762,9.281 l 0.835,-2.332 c 10.629,6.332 24.832,4.699 39.114,6.133 1.777,-0.75 4.687,-2.641 8.875,-1.762 7.097,5.02 11.172,5.328 22.105,9.422 8.25,1.207 21.785,2.199 30.371,1.906 30.293,9.848 62.555,10.289 94.489,17.711 l 2.671,-2.578 c 30.711,9.496 69.938,8.805 96.481,14.277 l -2.106,-5.117 c 8.567,-0.683 19.051,3.141 16.567,6.383 8.59,-0.672 20.855,4.406 26.594,0.926 8.707,-0.059 10.351,3.281 17.468,4.629 17.465,-0.418 23.84,0.515 40.075,2.769 l -4.075,-0.031 c -1.699,-1.219 -1.687,-3.301 2.399,-3.285 5.976,1.855 22.48,0.523 15.957,5.843 17.656,-1.839 40.426,6 57.726,2.489 -1.546,1.492 2.707,2.082 4.426,3.273 15.309,1.09 31.598,-1.09 43.625,2.438 2.477,-0.633 -3.711,-2.973 2.535,-2.719 3.649,0.848 -0.058,2.086 4.442,3.273 24.648,4.313 50.402,-0.457 72.886,1.493 39.965,4.902 81.895,4.91 120.325,6.433 l -0.4,-1.176 c 12.77,4.754 30.3,-3.921 40.44,3.043 3.06,-1.047 11.63,-0.269 9.42,-2.586 10.2,3.442 28.74,-2.339 43.51,1.692 l -3.71,-0.66 c 15,-2.481 28.18,1.16 43.99,-1.071 -1.59,-0.515 -4.51,-0.902 -4.98,-2.078 6.12,-2.203 14.45,5.055 17.81,-0.57 3.5,0.07 2.49,2.855 0.34,2.676 34.59,-2.024 71.51,1.027 107.55,2.097 25.74,-3.945 1.42,-9.55 21.83,-5.781 1.65,-1.129 1.25,2.129 1.5,0.953 7.91,1.406 12.14,-6.57 17.64,-3.742 -2.17,3.52 3.69,1.867 3.89,3.973 15.72,-2.598 18.79,-5.797 31.3,-3.438 l -0.99,-1.808 c 14.74,4.949 31.55,1.343 44.06,6.906 80.5,-1.399 157.77,-2.961 236.23,-7.828 77.33,-7.203 153.38,-11.715 231.39,-24.219 17.79,-6.824 19.13,-7.106 39.51,-7.727 -0.91,-0.656 -2.19,-0.679 -0.94,-1.582 1.5,3.782 14.22,-1.468 16.62,2 28.85,-4.308 55.58,-7.218 85.29,-11.597 -4.75,0.273 -7.59,-2.555 -1.96,-3.121 l 6.2,1.621 0.79,-1.231 c 3.91,0.02 8.36,1.328 4.6,3.16 75.15,-8.261 147.05,-28.441 219.51,-42.769 16.91,-4.883 41.55,-9.051 60.39,-12.363 54.1,-17.309 102.26,-34.079 158.66,-45.5 0,0 -9.98,-7.86 -33.39,-4.059"
         inkscape:connector-curvature="0"
         id="path22"
         style="fill:#a47343;fill-opacity:1;fill-rule:nonzero;stroke:none" /><path
         d="m 16.332,230.328 c 2.4571,-1.387 9.0625,-0.758 4.7032,-4.617 -1.1094,1.617 -4.8985,2.75 -4.7032,4.617"
         inkscape:connector-curvature="0"
         id="path24"
         style="fill:#a47343;fill-opacity:1;fill-rule:nonzero;stroke:none" /><path
         d="m 190.582,251.531 c 0.102,0.617 2.594,-0.25 3.195,-0.441 -2.062,-0.61 -3.675,-2.66 -5.558,-2.031 2.097,0.613 1.57,1.453 2.363,2.472"
         inkscape:connector-curvature="0"
         id="path26"
         style="fill:#a47343;fill-opacity:1;fill-rule:nonzero;stroke:none" /><path
         d="m 234.359,259.391 c -0.316,-1.852 -9.347,-5.082 -14.804,-6.391 l 14.804,6.391"
         inkscape:connector-curvature="0"
         id="path28"
         style="fill:#a47343;fill-opacity:1;fill-rule:nonzero;stroke:none" /><path
         d="m 276.332,260.449 c 3.789,-0.82 2.961,-1.73 -1.754,-2.629 -0.516,0.84 0.949,1.61 1.754,2.629"
         inkscape:connector-curvature="0"
         id="path30"
         style="fill:#a47343;fill-opacity:1;fill-rule:nonzero;stroke:none" /><path
         d="m 278.477,264.898 c 3.371,0.661 5.25,-0.046 7.082,-0.738 -0.403,1.461 -7.664,-2.34 -7.082,0.738"
         inkscape:connector-curvature="0"
         id="path32"
         style="fill:#a47343;fill-opacity:1;fill-rule:nonzero;stroke:none" /><path
         d="m 367.816,275.629 c 2.102,0.492 6.477,2.68 8.778,1.082 -2.449,0.98 -10,-3.871 -8.778,-1.082"
         inkscape:connector-curvature="0"
         id="path34"
         style="fill:#a47343;fill-opacity:1;fill-rule:nonzero;stroke:none" /><path
         d="m 408.586,284.988 c 1.348,0.102 1.941,-0.117 3.406,0.602 2.574,-0.379 0.192,-2.07 -1.84,-2.559 l -1.566,1.957"
         inkscape:connector-curvature="0"
         id="path36"
         style="fill:#a47343;fill-opacity:1;fill-rule:nonzero;stroke:none" /><path
         d="m 1166.04,354.805 -4.51,-0.969 0.64,1.75 3.87,-0.781"
         inkscape:connector-curvature="0"
         id="path38"
         style="fill:#a47343;fill-opacity:1;fill-rule:nonzero;stroke:none" /><path
         d="m 1499.89,350.703 c 4.55,0.934 3.06,-1.754 3.81,-2.043 -4.09,-0.031 1.6,2.102 -3.81,2.043"
         inkscape:connector-curvature="0"
         id="path40"
         style="fill:#a47343;fill-opacity:1;fill-rule:nonzero;stroke:none" /><path
         d="m 1680.25,349.457 -1.38,0.051 0.71,3.543 0.67,-3.594"
         inkscape:connector-curvature="0"
         id="path42"
         style="fill:#a47343;fill-opacity:1;fill-rule:nonzero;stroke:none" /><path
         d="m 68.1211,105.27 c -1.2695,1.351 -2.4063,2.921 -3.332,4.351 -0.918,1.449 -1.6602,2.93 -2.2735,4.629 -0.1289,-1.711 -0.1289,-3.191 -0.1211,-4.68 -0.3047,-1.73 -0.4375,-3.441 -0.7383,-5.191 L 53.3047,58.6602 96.5977,69.5508 68.1211,105.27 z M 39.0273,138.23 72.3711,146.621 162.926,38.3594 128.359,29.6602 112.039,50.2383 48.8516,34.3281 44.2227,8.48047 10.5312,0 39.0273,138.23"
         inkscape:connector-curvature="0"
         id="path44"
         style="fill:#7b7979;fill-opacity:1;fill-rule:nonzero;stroke:none" /><path
         d="m 146.094,163.789 28.828,6.313 L 202.07,46 173.242,39.6914 146.094,163.789"
         inkscape:connector-curvature="0"
         id="path46"
         style="fill:#7b7979;fill-opacity:1;fill-rule:nonzero;stroke:none" /><path
         d="m 246.227,101.289 c 3.539,-18.3788 18.214,-24.1601 32.703,-21.3671 18.199,3.5 23.879,17.789 21.16,31.9301 -1.707,8.828 -9.031,25.929 -32.848,21.16 -18.023,-3.473 -23.566,-18.473 -21.015,-31.723 z m -6.879,34.781 c 3.703,4.559 11.757,15.09 32.074,19 23.5,4.52 51.918,-4.109 58.418,-37.859 5.988,-31.1016 -13.281,-50.9415 -39.254,-55.9415 -20.32,-3.9101 -31.957,2.2813 -38.035,6.2305 l 8.57,-44.5195 -29.152,-5.6094 -23.75,123.3279 29.152,5.61 1.977,-10.239"
         inkscape:connector-curvature="0"
         id="path48"
         style="fill:#7b7979;fill-opacity:1;fill-rule:nonzero;stroke:none" /><path
         d="m 370.391,170.551 15.211,-89.7893 -29.11,-4.9414 -15.207,89.8007 29.106,4.93 z m -5.293,31.23 3.371,-19.871 -29.11,-4.93 -3.363,19.872 29.102,4.929"
         inkscape:connector-curvature="0"
         id="path50"
         style="fill:#7b7979;fill-opacity:1;fill-rule:nonzero;stroke:none" /><path
         d="m 396.254,175.078 29.027,4.281 1.891,-12.82 c 3.922,5.492 12.676,17.691 37.43,21.34 21.722,3.211 32.988,-5.328 35.894,-7.809 9.152,-7.742 10.832,-19.14 12.453,-28.91 l 7.371,-50.031 -29.406,-4.1602 -6.797,46.1212 c -0.996,6.769 -2.59,15.09 -10.191,19.789 -3.399,2.051 -8.598,4.012 -18.571,2.531 -8.191,-1.211 -14.285,-4.281 -17.71,-6.969 -7.485,-6.011 -7.114,-14.703 -6.25,-20.57 l 7.167,-48.621 -29.027,-4.2812 -13.281,90.1092"
         inkscape:connector-curvature="0"
         id="path52"
         style="fill:#7b7979;fill-opacity:1;fill-rule:nonzero;stroke:none" /><path
         d="m 618.352,170.469 c -0.946,3.332 -2.985,8.351 -9.485,11.203 -4.586,2 -11.988,3.289 -19.847,2.359 -6.973,-0.832 -14.645,-3.371 -19.582,-7.582 -4.774,-4.008 -6.098,-8.16 -7.372,-12.66 l 56.286,6.68 z m -55.25,-23.039 c 1.054,-2.782 3.32,-8.129 6.98,-11.5 7.145,-6.758 17.492,-8.43 27.141,-7.282 19.117,2.262 25.004,12.204 27.281,15.922 l 30.918,0.59 c -10.637,-23.371 -31.734,-34.93 -57.106,-37.949 -15.367,-1.82 -31.605,-0.852 -44.746,7.559 -13.117,8.218 -19.84,22.109 -21.367,34.968 -3.945,33.231 22.731,51.262 54.887,55.082 12.328,1.461 33.555,1.258 49.055,-11.761 13.472,-11.258 15.375,-25.707 16.652,-34.989 l -89.695,-10.64"
         inkscape:connector-curvature="0"
         id="path54"
         style="fill:#7b7979;fill-opacity:1;fill-rule:nonzero;stroke:none" /><path
         d="m 732.289,252.488 31.734,2.762 10.989,-126.578 -31.735,-2.762 -10.988,126.578"
         inkscape:connector-curvature="0"
         id="path56"
         style="fill:#7b7979;fill-opacity:1;fill-rule:nonzero;stroke:none" /><path
         d="m 793.953,221.871 29.277,2.008 0.891,-12.93 c 4.336,5.18 14.008,16.672 38.977,18.379 21.906,1.512 32.476,-7.859 35.187,-10.566 8.524,-8.434 9.313,-19.934 10.172,-29.793 l 3.473,-50.469 -29.645,-1.859 -3.203,46.519 c -0.469,6.82 -1.406,15.238 -8.629,20.52 -3.226,2.3 -8.262,4.66 -18.312,3.968 -8.262,-0.57 -14.582,-3.168 -18.203,-5.589 -7.93,-5.418 -8.235,-14.098 -7.829,-20.02 l 3.371,-49.027 -29.269,-2.024 -6.258,90.883"
         inkscape:connector-curvature="0"
         id="path58"
         style="fill:#7b7979;fill-opacity:1;fill-rule:nonzero;stroke:none" /><path
         d="m 933.883,255.23 29.476,1.5 1.235,-24.269 20.312,1.039 0.899,-17.621 -20.313,-1.027 2.098,-41.161 c 0.445,-8.812 3.601,-10.632 12.055,-10.203 4.128,0.211 5.921,0.481 8.96,1 l 1.079,-21.207 c -7.157,-1.09 -14.309,-2.179 -21.5,-2.543 -6.289,-0.328 -12.618,0.071 -17.778,2.332 -10.89,5.039 -11.562,14.739 -11.91,21.559 l -2.484,48.711 -14.739,-0.75 -0.898,17.621 14.742,0.75 -1.234,24.269"
         inkscape:connector-curvature="0"
         id="path60"
         style="fill:#7b7979;fill-opacity:1;fill-rule:nonzero;stroke:none" /><path
         d="m 1082.28,202.891 c -0.65,3.398 -2.27,8.57 -8.51,11.968 -4.4,2.371 -11.68,4.282 -19.59,4.012 -7.02,-0.23 -14.88,-2.133 -20.15,-5.91 -5.1,-3.59 -6.77,-7.602 -8.42,-11.992 l 56.67,1.922 z m -57.01,-18.321 c 0.81,-2.859 2.62,-8.371 5.99,-12.05 6.55,-7.329 16.72,-9.872 26.44,-9.54 19.25,0.649 25.95,10.059 28.54,13.579 l 30.86,-2.02 c -12.56,-22.398 -34.57,-32.148 -60.11,-33.019 -15.48,-0.52 -31.58,1.808 -43.97,11.3 -12.39,9.301 -17.918,23.711 -18.356,36.66 -1.141,33.45 26.966,49.18 59.346,50.282 12.42,0.418 33.55,-1.563 47.91,-15.852 12.48,-12.359 13.16,-26.922 13.66,-36.281 l -90.31,-3.059"
         inkscape:connector-curvature="0"
         id="path62"
         style="fill:#7b7979;fill-opacity:1;fill-rule:nonzero;stroke:none" /><path
         d="m 1159.43,197.078 c 0.14,-12.058 8.2,-24.578 27.1,-24.359 14.23,0.16 28.55,7.871 28.36,24.98 -0.18,16.199 -14.49,23.789 -29.25,23.449 -15.85,-0.359 -26.37,-9.839 -26.21,-24.07 z m 55.98,-29.988 c -4.99,-4.559 -15.69,-14.942 -37.83,-15.18 -15.67,-0.18 -27.98,5.461 -34.15,10.602 -11.63,9.597 -14.67,23.066 -14.77,32.617 -0.3,27.191 18.58,46.66 49,46.992 20.71,0.238 31.07,-8.301 37.07,-13.269 l -0.13,10.796 28.46,0.313 0.84,-77.063 c 0.14,-12.777 0.32,-28.796 -13.6,-39.757 -11.97,-9.5 -30.67,-11.692 -44.35,-11.84 -41.05,-0.449 -50.98,17.808 -55.65,32.711 l 32.05,0.347 c 3.9,-10.757 14.18,-12.281 25.53,-12.148 6.66,0.078 13.67,1.23 18.85,4.527 8.59,5.313 8.69,13.242 8.78,20.813 l -0.1,9.539"
         inkscape:connector-curvature="0"
         id="path64"
         style="fill:#7b7979;fill-opacity:1;fill-rule:nonzero;stroke:none" /><path
         d="m 1299,223.828 c 4.35,6.82 11.81,18.121 38.28,18.5 l -0.17,-26.828 c -2.52,0.199 -4.67,0.391 -7.74,0.41 -2.52,0.012 -12.77,-0.109 -19.82,-3.851 -9.21,-4.797 -10.7,-11.809 -10.75,-19.731 l -0.25,-43.937 -29.89,0.179 0.54,91.102 29.89,-0.172 -0.09,-15.672"
         inkscape:connector-curvature="0"
         id="path66"
         style="fill:#7b7979;fill-opacity:1;fill-rule:nonzero;stroke:none" /><path
         d="m 1381.7,270 -0.36,-20.148 -29.5,0.527 0.36,20.141 29.5,-0.52 z m -0.56,-31.672 -1.62,-91.019 -29.51,0.531 1.63,91.019 29.5,-0.531"
         inkscape:connector-curvature="0"
         id="path68"
         style="fill:#7b7979;fill-opacity:1;fill-rule:nonzero;stroke:none" /><path
         d="m 1411.12,262.012 29.5,-0.832 -0.68,-24.282 20.33,-0.578 -0.5,-17.621 -20.32,0.563 -1.15,-41.192 c -0.26,-8.82 2.75,-10.879 11.21,-11.121 4.13,-0.121 5.93,0.02 9,0.289 l -0.59,-21.226 c -7.21,-0.524 -14.43,-1.043 -21.63,-0.84 -6.29,0.187 -12.57,1.066 -17.54,3.738 -10.45,5.871 -10.37,15.59 -10.17,22.418 l 1.36,48.762 -14.75,0.41 0.49,17.629 14.75,-0.41 0.69,24.293"
         inkscape:connector-curvature="0"
         id="path70"
         style="fill:#7b7979;fill-opacity:1;fill-rule:nonzero;stroke:none" /><path
         d="m 1462.52,236.48 31.66,-1.371 19.15,-57.609 c 1.89,-6.211 2.18,-7.66 2.99,-14 1.02,6.809 1.44,8.219 4.06,14.602 l 23.1,54.867 31.3,-1.34 -47.01,-95.117 c -11.39,-21.684 -16.72,-28.301 -41.01,-27.25 -7.19,0.308 -14.55,1.168 -21.91,1.847 l 0.94,21.59 c 4.12,-0.539 10.21,-1.347 14.89,-1.539 5.76,-0.262 8.31,0.531 9.78,1.199 2.76,1.141 3.9,2.532 8.78,11.332 l -36.72,92.789"
         inkscape:connector-curvature="0"
         id="path72"
         style="fill:#7b7979;fill-opacity:1;fill-rule:nonzero;stroke:none" /><path
         d="m 1670.34,173.879 c 5.99,-15.801 23.76,-21.867 40.98,-23.199 7.72,-0.602 32.03,-1.219 33.24,14.218 0.7,9.153 -7.92,11.981 -14.64,13.762 -5.13,1.481 -30.84,7.442 -36.68,8.981 -11.5,3.05 -40.49,10.89 -38.27,39.597 0.48,6.282 2.78,12.614 6.41,17.563 11.91,16.23 35.58,18.91 55.68,17.347 18.48,-1.418 32.45,-5.207 45,-13.41 12.37,-7.988 17.21,-17.758 19.4,-22.078 l -30.72,-5.199 c -0.93,2.051 -3.08,6.91 -10.32,11.269 -8.12,4.77 -19.01,6.34 -25.11,6.809 -14,1.09 -28.56,-0.488 -29.49,-12.508 -0.64,-8.269 6.55,-10.98 15.89,-13.871 5.12,-1.488 30.63,-7.781 36.46,-9.5 14.5,-3.832 39.03,-11.148 36.87,-38.961 -3.15,-40.73 -51.71,-38.429 -67.68,-37.187 -20.81,1.617 -52.66,7.687 -66.5,41.078 l 29.48,5.289"
         inkscape:connector-curvature="0"
         id="path74"
         style="fill:#7b7979;fill-opacity:1;fill-rule:nonzero;stroke:none" /><path
         d="m 1877.54,172.891 c -0.18,3.461 -1.08,8.8 -6.79,13.007 -4.05,2.954 -10.98,5.832 -18.85,6.641 -6.98,0.731 -15.03,-0.078 -20.76,-3.098 -5.55,-2.863 -7.75,-6.613 -9.97,-10.73 l 56.37,-5.82 z m -58.95,-10.379 c 0.42,-2.934 1.45,-8.653 4.3,-12.742 5.48,-8.161 15.21,-12.059 24.88,-13.059 19.15,-1.973 27.07,6.437 30.11,9.559 l 30.29,-6.2 c -15.5,-20.468 -38.62,-27.129 -64.03,-24.511 -15.39,1.589 -31.03,6.089 -42.01,17.179 -10.99,10.91 -14.51,25.922 -13.18,38.813 3.44,33.289 33.41,45.027 65.63,41.711 12.34,-1.282 33.01,-6.133 45.28,-22.223 10.68,-13.949 9.36,-28.469 8.58,-37.789 l -89.85,9.262"
         inkscape:connector-curvature="0"
         id="path76"
         style="fill:#7b7979;fill-opacity:1;fill-rule:nonzero;stroke:none" /><path
         d="m 1961.81,181.672 c 5.14,6.258 13.87,16.609 40.2,13.859 l -3.32,-26.621 c -2.48,0.488 -4.6,0.942 -7.64,1.32 -2.5,0.309 -12.71,1.399 -20.15,-1.492 -9.71,-3.679 -12.01,-10.468 -12.98,-18.34 l -5.44,-43.589 -29.66,3.691 11.27,90.422 29.66,-3.703 -1.94,-15.547"
         inkscape:connector-curvature="0"
         id="path78"
         style="fill:#7b7979;fill-opacity:1;fill-rule:nonzero;stroke:none" /><path
         d="m 2035.35,187.719 14.98,-68.188 34.7,60.949 32.05,-4.671 -53.9,-84.1684 -33.13,4.8282 -27.29,95.9922 32.59,-4.742"
         inkscape:connector-curvature="0"
         id="path80"
         style="fill:#7b7979;fill-opacity:1;fill-rule:nonzero;stroke:none" /><path
         d="m 2164.87,199.77 -3.28,-19.891 -29.13,4.801 3.28,19.89 29.13,-4.8 z m -5.16,-31.258 -14.82,-89.8714 -29.13,4.8008 14.82,89.8676 29.13,-4.797"
         inkscape:connector-curvature="0"
         id="path82"
         style="fill:#7b7979;fill-opacity:1;fill-rule:nonzero;stroke:none" /><path
         d="m 2283.56,82.0781 c -16.92,-21.9179 -44.83,-24.207 -63.42,-20.7383 -29.73,5.5704 -54.55,27.6094 -48.59,59.4692 6.76,36.113 43.03,41.972 68.15,37.269 12.22,-2.289 27.4,-8.238 37.71,-18.777 7.66,-8.031 9.72,-14.653 11.27,-20.071 l -31.11,2.161 c -1.88,3.648 -6.57,11.859 -21.97,14.738 -16.99,3.18 -31.65,-5.629 -34.46,-20.668 -2.19,-11.68 3.53,-28.1407 24.24,-32.0118 6.37,-1.1875 13.57,-0.8984 19.48,1.3008 6.29,2.3008 8.06,4.8984 9.72,6.9688 l 28.98,-9.6407"
         inkscape:connector-curvature="0"
         id="path84"
         style="fill:#7b7979;fill-opacity:1;fill-rule:nonzero;stroke:none" /><path
         d="m 2379.56,90.1484 c 0.21,3.461 -0.06,8.8711 -5.26,13.7106 -3.67,3.403 -10.23,7.071 -17.97,8.789 -6.85,1.524 -14.94,1.661 -20.99,-0.679 -5.84,-2.207 -8.46,-5.688 -11.16,-9.508 l 55.38,-12.3126 z m -59.81,-3.5 c 0.08,-2.957 0.45,-8.7695 2.79,-13.1601 4.52,-8.75 13.73,-13.75 23.23,-15.8594 18.81,-4.1797 27.65,3.2617 31.03,6.0195 l 29.4,-9.6679 c -17.78,-18.5586 -41.53,-22.5 -66.49,-16.9493 -15.12,3.3477 -30.13,9.6407 -39.76,21.9297 -9.67,12.1094 -11.43,27.4375 -8.62,40.0977 7.27,32.6914 38.42,40.9024 70.06,33.8634 12.13,-2.692 32.11,-9.902 42.44,-27.32 9.01,-15.102 6.02,-29.3832 4.16,-38.5629 l -88.24,19.6093"
         inkscape:connector-curvature="0"
         id="path86"
         style="fill:#7b7979;fill-opacity:1;fill-rule:nonzero;stroke:none" /><path
         d="m 2449.26,46.6016 c 0.29,-12.3711 11.23,-17.4727 22.55,-20.4532 5.23,-1.3789 10.31,-2.5273 15.65,-2.0703 1.53,0.1524 7.04,0.5703 8.32,5.4531 1.6,6.0899 -5.04,9.1407 -17.82,14.3594 -6.73,2.6992 -13.61,4.8789 -20.34,7.5782 -8.95,3.4804 -31.55,12.3906 -25.92,33.8124 5.54,21.0588 29.82,24.9178 59.42,17.1408 9.05,-2.391 26.28,-7.6603 36.86,-20.4923 7.19,-8.7813 7.36,-16.6406 7.47,-21.1406 l -30.27,5.9101 c -0.97,6.961 -7.09,13.4024 -20.84,17.0196 -11.84,3.1093 -20.85,2.1328 -22.31,-3.4376 -0.96,-3.6523 2.07,-6.3124 5.84,-8.2421 4.86,-2.7579 7.59,-3.668 31.85,-12.6485 6.44,-2.4414 13.73,-5.1094 18.88,-9.6211 7.48,-6.25 10.24,-15.539 7.77,-24.9414 -1.96,-7.4765 -6.98,-13.7969 -13.65,-17.25779 -8,-4.23047 -22.01,-7.242185 -46.9,-0.6914 -40.57,10.66019 -48.13,28.66019 -47.96,45.56249 l 31.4,-5.8398"
         inkscape:connector-curvature="0"
         id="path88"
         style="fill:#7b7979;fill-opacity:1;fill-rule:nonzero;stroke:none" /></g></g></svg>